<svg width="43" height="58" viewBox="0 0 43 58" fill="none" xmlns="http://www.w3.org/2000/svg">
<g clip-path="url(#clip0_379_214)">
<path fill-rule="evenodd" clip-rule="evenodd" d="M26.167 0.114269C21.2132 -0.475291 19.5945 1.1938 20.0149 5.99904C24.3661 6.42523 26.5611 4.61917 26.167 0.114269ZM39.9568 0.150699C35.0031 -0.438861 33.3843 1.23023 33.8047 6.03547C38.1559 6.46166 40.351 4.6556 39.9568 0.150699ZM17.5554 4.86668C12.6016 4.27712 10.9829 5.9462 11.4033 10.7514C15.7545 11.1776 17.9495 9.37158 17.5554 4.86668ZM8.94376 9.58255C3.99002 8.99299 2.37127 10.6621 2.79168 15.4673C7.14286 15.8935 9.33789 14.0875 8.94376 9.58255ZM36.2562 11.5132H29.6979C24.5749 11.5132 19.5314 12.7826 15.0134 15.2192L8.72888 18.7566C5.13836 21.1711 3.94152 23.5855 3.94152 27.2027V35.6489L6.44119 37.5441C6.37495 37.3221 6.33962 37.0914 6.3352 36.8561V28.41C6.3352 23.5811 8.72888 21.1711 11.1226 21.1711C11.1226 21.1711 8.72888 22.3783 8.72888 28.41V39.2706L11.2286 41.1657C11.1623 40.9438 11.127 40.713 11.1226 40.4778V32.0317C11.1226 27.2027 13.5162 24.7927 15.9099 24.7927C15.9099 24.7927 13.5162 26 13.5162 32.0317V42.8923L16.0159 44.7874C15.9497 44.5655 15.9143 44.3347 15.9099 44.0995V35.6533C15.9099 30.8244 18.3036 28.4144 20.6973 28.4144C20.6973 28.4144 18.3036 29.6216 18.3036 35.6533V46.5139L20.8165 48.4091C20.7414 48.1872 20.7017 47.9564 20.6973 47.7212V37.8858C20.578 33.0569 22.8392 31.2017 26.7875 32.0228C27.5648 32.2403 28.3774 32.3201 29.1812 32.2536C29.4991 32.2225 29.7994 32.076 30.0203 31.8408C30.2411 31.6056 30.3692 31.2949 30.378 30.9709V29.9678C30.3824 29.8169 30.3382 29.666 30.2499 29.5417C30.1616 29.4175 30.0335 29.3287 29.8878 29.2888L26.7742 28.4055C27.5162 27.6155 28.4127 26.9941 29.4108 26.5769C30.4089 26.1597 31.4777 25.96 32.5553 25.9911H35.0329C35.2581 25.9911 35.2581 25.7603 35.1389 25.5561C35.0763 25.4428 35.0032 25.3106 34.9219 25.1637L34.9218 25.1636C34.3023 24.0444 33.2097 22.0704 32.7452 21.0778C32.4139 20.3633 32.2815 19.5732 32.361 18.7921C32.4404 18.0065 32.7231 17.2609 33.1868 16.6262C34.1938 15.419 36.0972 15.1305 37.5679 15.1305V12.716C37.5679 12.5474 37.5325 12.3787 37.4663 12.2234C37.4 12.068 37.2985 11.9304 37.1748 11.815C37.0512 11.6996 36.9054 11.6153 36.7464 11.5621C36.5874 11.5088 36.4196 11.491 36.2518 11.5088L36.2562 11.5132ZM27.7856 19.5999C27.0657 20.4698 26.1648 21.1666 25.149 21.646C24.1332 22.1253 23.0203 22.3738 21.8985 22.3738V18.7522H18.308C18.308 17.7935 18.6878 16.8703 19.3591 16.1912C20.0304 15.5122 20.9446 15.1305 21.8985 15.1305H31.4733L27.7856 19.5954V19.5999ZM33.8817 30.3844V31.9263C35.1104 31.9263 37.5679 33.1314 37.5679 37.952V28.3152L34.716 29.2412C34.4711 29.321 34.258 29.4761 34.1084 29.6799C33.9588 29.8837 33.8772 30.1318 33.8772 30.3844H33.8817ZM26.3326 34.1473C28.4466 34.4914 30.5962 34.5928 32.7369 34.4473L32.7458 34.4561C34.6903 34.4561 35.172 35.3074 35.1006 39.2552V49.6784C34.3201 49.9342 33.504 50.0577 32.6834 50.0489V38.0555C32.6834 37.7379 32.5585 37.4335 32.3311 37.2086C32.1036 36.9836 31.7959 36.8557 31.4748 36.8557H26.6404L29.5526 39.7449C29.7756 39.9698 29.954 40.2345 30.0789 40.5256C30.1993 40.8167 30.2617 41.1299 30.2617 41.4475V50.0445H27.8445V42.2106C27.8445 42.0342 27.8044 41.8577 27.7286 41.6989C27.6527 41.5401 27.5457 41.399 27.4075 41.2843L25.4273 39.6434V50.0401H23.0101V38.0466C22.9967 34.1473 24.7271 33.8342 26.3326 34.1473ZM35.3126 21.6343C35.3126 21.6343 36.5698 21.828 37.568 21.3439C37.568 21.6091 37.5669 22.0139 37.5656 22.4744V22.4746C37.5624 23.6161 37.5582 25.1001 37.568 25.6497C36.773 24.3248 36.0253 23.0059 35.3126 21.6343Z" fill="white"/>
</g>
<defs>
<clipPath id="clip0_379_214">
<rect width="42.6051" height="50.0487" fill="white" transform="translate(0.0625 0.000732422)"/>
</clipPath>
</defs>
</svg>
