<svg width="25" height="24" viewBox="0 0 25 24" fill="none" xmlns="http://www.w3.org/2000/svg">
<path d="M21 11.2506V20.2506C21 20.6484 20.842 21.0299 20.5607 21.3112C20.2794 21.5926 19.8978 21.7506 19.5 21.7506H6C5.60218 21.7506 5.22064 21.5926 4.93934 21.3112C4.65804 21.0299 4.5 20.6484 4.5 20.2506V11.2506C4.5 10.8528 4.65804 10.4712 4.93934 10.1899C5.22064 9.90863 5.60218 9.75059 6 9.75059H8.25C8.44891 9.75059 8.63968 9.82961 8.78033 9.97026C8.92098 10.1109 9 10.3017 9 10.5006C9 10.6995 8.92098 10.8903 8.78033 11.0309C8.63968 11.1716 8.44891 11.2506 8.25 11.2506H6V20.2506H19.5V11.2506H17.25C17.0511 11.2506 16.8603 11.1716 16.7197 11.0309C16.579 10.8903 16.5 10.6995 16.5 10.5006C16.5 10.3017 16.579 10.1109 16.7197 9.97026C16.8603 9.82961 17.0511 9.75059 17.25 9.75059H19.5C19.8978 9.75059 20.2794 9.90863 20.5607 10.1899C20.842 10.4712 21 10.8528 21 11.2506ZM9.53063 7.28122L12 4.8109V13.5006C12 13.6995 12.079 13.8903 12.2197 14.0309C12.3603 14.1716 12.5511 14.2506 12.75 14.2506C12.9489 14.2506 13.1397 14.1716 13.2803 14.0309C13.421 13.8903 13.5 13.6995 13.5 13.5006V4.8109L15.9694 7.28122C16.1101 7.42195 16.301 7.50101 16.5 7.50101C16.699 7.50101 16.8899 7.42195 17.0306 7.28122C17.1714 7.14048 17.2504 6.94961 17.2504 6.75059C17.2504 6.55157 17.1714 6.3607 17.0306 6.21996L13.2806 2.46997C13.211 2.40023 13.1283 2.34491 13.0372 2.30717C12.9462 2.26943 12.8486 2.25 12.75 2.25C12.6514 2.25 12.5538 2.26943 12.4628 2.30717C12.3717 2.34491 12.289 2.40023 12.2194 2.46997L8.46937 6.21996C8.32864 6.3607 8.24958 6.55157 8.24958 6.75059C8.24958 6.94961 8.32864 7.14048 8.46938 7.28121C8.61011 7.42195 8.80098 7.50101 9 7.50101C9.19902 7.50101 9.38989 7.42195 9.53063 7.28122Z" fill="#BA2130"/>
</svg>
