<svg width="22" height="22" viewBox="0 0 22 22" fill="none" xmlns="http://www.w3.org/2000/svg">
<path d="M7.26977 4.78024C7.20004 4.71058 7.14472 4.62787 7.10698 4.53682C7.06923 4.44577 7.0498 4.34818 7.0498 4.24961C7.0498 4.15105 7.06923 4.05346 7.10698 3.96241C7.14472 3.87136 7.20004 3.78864 7.26977 3.71899L10.2698 0.718988C10.3394 0.649256 10.4221 0.593937 10.5132 0.556194C10.6042 0.51845 10.7018 0.499023 10.8004 0.499023C10.899 0.499023 10.9966 0.51845 11.0876 0.556194C11.1786 0.593937 11.2614 0.649256 11.331 0.718988L14.331 3.71899C14.4718 3.85972 14.5508 4.05059 14.5508 4.24961C14.5508 4.44864 14.4718 4.63951 14.331 4.78024C14.1903 4.92097 13.9994 5.00003 13.8004 5.00003C13.6014 5.00003 13.4105 4.92097 13.2698 4.78024L11.5504 3.05993V7.99961C11.5504 8.19853 11.4714 8.38929 11.3307 8.52994C11.1901 8.6706 10.9993 8.74961 10.8004 8.74961C10.6015 8.74961 10.4107 8.6706 10.2701 8.52994C10.1294 8.38929 10.0504 8.19853 10.0504 7.99961V3.05993L8.33102 4.78024C8.26137 4.84997 8.17865 4.90529 8.0876 4.94303C7.99655 4.98078 7.89896 5.0002 7.8004 5.0002C7.70183 5.0002 7.60424 4.98078 7.51319 4.94303C7.42214 4.90529 7.33942 4.84997 7.26977 4.78024ZM13.2698 17.219L11.5504 18.9393V13.9996C11.5504 13.8007 11.4714 13.6099 11.3307 13.4693C11.1901 13.3286 10.9993 13.2496 10.8004 13.2496C10.6015 13.2496 10.4107 13.3286 10.2701 13.4693C10.1294 13.6099 10.0504 13.8007 10.0504 13.9996V18.9393L8.33102 17.219C8.19029 17.0783 7.99942 16.9992 7.8004 16.9992C7.60137 16.9992 7.4105 17.0783 7.26977 17.219C7.12904 17.3597 7.04998 17.5506 7.04998 17.7496C7.04998 17.9486 7.12904 18.1395 7.26977 18.2802L10.2698 21.2802C10.3394 21.35 10.4221 21.4053 10.5132 21.443C10.6042 21.4808 10.7018 21.5002 10.8004 21.5002C10.899 21.5002 10.9966 21.4808 11.0876 21.443C11.1786 21.4053 11.2614 21.35 11.331 21.2802L14.331 18.2802C14.4718 18.1395 14.5508 17.9486 14.5508 17.7496C14.5508 17.5506 14.4718 17.3597 14.331 17.219C14.1903 17.0783 13.9994 16.9992 13.8004 16.9992C13.6014 16.9992 13.4105 17.0783 13.2698 17.219ZM21.081 10.469L18.081 7.46899C17.9403 7.32826 17.7494 7.2492 17.5504 7.2492C17.3514 7.2492 17.1605 7.32826 17.0198 7.46899C16.879 7.60972 16.8 7.80059 16.8 7.99961C16.8 8.19864 16.879 8.38951 17.0198 8.53024L18.7401 10.2496H13.8004C13.6015 10.2496 13.4107 10.3286 13.2701 10.4693C13.1294 10.6099 13.0504 10.8007 13.0504 10.9996C13.0504 11.1985 13.1294 11.3893 13.2701 11.5299C13.4107 11.6706 13.6015 11.7496 13.8004 11.7496H18.7401L17.0198 13.469C16.879 13.6097 16.8 13.8006 16.8 13.9996C16.8 14.1986 16.879 14.3895 17.0198 14.5302C17.1605 14.671 17.3514 14.75 17.5504 14.75C17.7494 14.75 17.9403 14.671 18.081 14.5302L21.081 11.5302C21.1508 11.4606 21.2061 11.3779 21.2438 11.2868C21.2816 11.1958 21.301 11.0982 21.301 10.9996C21.301 10.9011 21.2816 10.8035 21.2438 10.7124C21.2061 10.6214 21.1508 10.5386 21.081 10.469ZM2.86071 11.7496H7.8004C7.99931 11.7496 8.19007 11.6706 8.33072 11.5299C8.47138 11.3893 8.5504 11.1985 8.5504 10.9996C8.5504 10.8007 8.47138 10.6099 8.33072 10.4693C8.19007 10.3286 7.99931 10.2496 7.8004 10.2496H2.86071L4.58102 8.53024C4.72175 8.38951 4.80081 8.19864 4.80081 7.99961C4.80081 7.80059 4.72175 7.60972 4.58102 7.46899C4.44029 7.32826 4.24942 7.2492 4.05039 7.2492C3.85137 7.2492 3.6605 7.32826 3.51977 7.46899L0.51977 10.469C0.450037 10.5386 0.394718 10.6214 0.356975 10.7124C0.319232 10.8035 0.299805 10.9011 0.299805 10.9996C0.299805 11.0982 0.319232 11.1958 0.356975 11.2868C0.394718 11.3779 0.450037 11.4606 0.51977 11.5302L3.51977 14.5302C3.6605 14.671 3.85137 14.75 4.05039 14.75C4.24942 14.75 4.44029 14.671 4.58102 14.5302C4.72175 14.3895 4.80081 14.1986 4.80081 13.9996C4.80081 13.8006 4.72175 13.6097 4.58102 13.469L2.86071 11.7496Z" fill="#8364FF"/>
</svg>
