<svg width="24" height="24" viewBox="0 0 24 24" fill="none" xmlns="http://www.w3.org/2000/svg">
<path d="M15.5024 12.4342L9.36601 18.5706C9.30899 18.6277 9.24131 18.6729 9.16682 18.7037C9.09233 18.7346 9.01249 18.7505 8.93186 18.7505C8.85123 18.7505 8.77139 18.7346 8.69689 18.7037C8.6224 18.6729 8.55472 18.6277 8.4977 18.5706C8.44069 18.5136 8.39546 18.4459 8.36461 18.3714C8.33375 18.297 8.31787 18.2171 8.31787 18.1365C8.31787 18.0559 8.33375 17.976 8.36461 17.9015C8.39546 17.827 8.44069 17.7593 8.4977 17.7023L14.2008 12.0001L8.4977 6.29777C8.38256 6.18263 8.31787 6.02646 8.31787 5.86362C8.31787 5.70078 8.38256 5.54461 8.4977 5.42947C8.61285 5.31432 8.76902 5.24963 8.93186 5.24963C9.09469 5.24963 9.25086 5.31432 9.36601 5.42947L15.5024 11.5659C15.5595 11.6229 15.6048 11.6906 15.6356 11.7651C15.6665 11.8396 15.6824 11.9194 15.6824 12.0001C15.6824 12.0807 15.6665 12.1605 15.6356 12.235C15.6048 12.3095 15.5595 12.3772 15.5024 12.4342Z" fill="#636366"/>
</svg>
