<svg width="72" height="72" viewBox="0 0 72 72" fill="none" xmlns="http://www.w3.org/2000/svg">
<path d="M18 20.25C16.7574 20.25 15.75 21.2574 15.75 22.5V64.5C15.75 65.7426 16.7574 66.75 18 66.75H66C67.2426 66.75 68.25 65.7426 68.25 64.5V22.5C68.25 21.2574 67.2426 20.25 66 20.25H18Z" fill="#8B98A6"/>
<path d="M18 8.25C16.7574 8.25 15.75 9.25737 15.75 10.5V22.8958C15.75 23.3521 15.6668 23.8045 15.5043 24.2308L3.89743 54.699C3.63397 55.3905 3.72742 56.1675 4.14736 56.7768C4.5673 57.3861 5.26 57.75 6.00001 57.75H54C54.9336 57.75 55.7703 57.1734 56.1027 56.301L67.7094 25.8328C68.067 24.8948 68.25 23.8996 68.25 22.8958V10.5C68.25 9.25737 67.2426 8.25 66 8.25H18Z" fill="#ECEFF1"/>
<path d="M18 8.25C16.7574 8.25 15.75 9.25737 15.75 10.5V24C15.75 25.2426 16.7574 26.25 18 26.25H66C67.2426 26.25 68.25 25.2426 68.25 24V10.5C68.25 9.25737 67.2426 8.25 66 8.25H18Z" fill="#EE4D4D"/>
<path fill-rule="evenodd" clip-rule="evenodd" d="M42 20.25V66.75H18C16.7574 66.75 15.75 65.7426 15.75 64.5V22.5C15.75 21.2574 16.7574 20.25 18 20.25H42Z" fill="#7D8995"/>
<path fill-rule="evenodd" clip-rule="evenodd" d="M42 57.75V10.6864H15.75V22.8959C15.75 23.3521 15.6668 23.8045 15.5043 24.2308L3.89743 54.699C3.63397 55.3905 3.72742 56.1675 4.14736 56.7768C4.5673 57.3861 5.26 57.75 6.00001 57.75H42Z" fill="#CFD8DC"/>
<path fill-rule="evenodd" clip-rule="evenodd" d="M42 8.25V26.25H18C16.7574 26.25 15.75 25.2426 15.75 24V10.5C15.75 9.25737 16.7574 8.25 18 8.25H42Z" fill="#D64545"/>
<path fill-rule="evenodd" clip-rule="evenodd" d="M25.5 2.25C26.7426 2.25 27.75 3.25737 27.75 4.5V15C27.75 16.2426 26.7426 17.25 25.5 17.25C24.2574 17.25 23.25 16.2426 23.25 15V4.5C23.25 3.25737 24.2574 2.25 25.5 2.25Z" fill="#CFD8DC"/>
<path fill-rule="evenodd" clip-rule="evenodd" d="M42 2.25C43.2426 2.25 44.25 3.25737 44.25 4.5V15C44.25 16.2426 43.2426 17.25 42 17.25C40.7574 17.25 39.75 16.2426 39.75 15V4.5C39.75 3.25737 40.7574 2.25 42 2.25Z" fill="#ECEFF1"/>
<path fill-rule="evenodd" clip-rule="evenodd" d="M58.5 2.25C59.7426 2.25 60.75 3.25737 60.75 4.5V15C60.75 16.2426 59.7426 17.25 58.5 17.25C57.2574 17.25 56.25 16.2426 56.25 15V4.5C56.25 3.25737 57.2574 2.25 58.5 2.25Z" fill="#ECEFF1"/>
<path fill-rule="evenodd" clip-rule="evenodd" d="M42 2.25C40.7574 2.25 39.75 3.25737 39.75 4.5V15C39.75 16.2426 40.7574 17.25 42 17.25V2.25Z" fill="#CFD8DC"/>
</svg>
