<svg width="20" height="20" viewBox="0 0 20 20" fill="none" xmlns="http://www.w3.org/2000/svg">
<path d="M9.75 0C7.82164 0 5.93657 0.571828 4.33319 1.64317C2.72982 2.71451 1.48013 4.23726 0.742179 6.01884C0.00422452 7.80042 -0.188858 9.76082 0.187348 11.6521C0.563554 13.5434 1.49215 15.2807 2.85571 16.6443C4.21928 18.0079 5.95656 18.9365 7.84787 19.3127C9.73919 19.6889 11.6996 19.4958 13.4812 18.7578C15.2627 18.0199 16.7855 16.7702 17.8568 15.1668C18.9282 13.5634 19.5 11.6784 19.5 9.75C19.4973 7.16498 18.4692 4.68661 16.6413 2.85872C14.8134 1.03084 12.335 0.00272983 9.75 0ZM9.75 14.25C8.85999 14.25 7.98996 13.9861 7.24994 13.4916C6.50992 12.9971 5.93314 12.2943 5.59255 11.4721C5.25195 10.6498 5.16284 9.74501 5.33647 8.87209C5.5101 7.99918 5.93869 7.19736 6.56802 6.56802C7.19736 5.93868 7.99918 5.5101 8.8721 5.33647C9.74501 5.16283 10.6498 5.25195 11.4721 5.59254C12.2943 5.93314 12.9972 6.50991 13.4916 7.24993C13.9861 7.98995 14.25 8.85998 14.25 9.75C14.2488 10.9431 13.7743 12.087 12.9306 12.9306C12.087 13.7743 10.9431 14.2488 9.75 14.25ZM13.4259 5.01281C12.5783 4.35026 11.5673 3.92916 10.5 3.79406V1.53469C12.1644 1.68462 13.7434 2.33873 15.0263 3.40969L13.4259 5.01281ZM9 3.79875C7.93267 3.93385 6.9217 4.35495 6.07407 5.0175L4.47375 3.4125C5.7566 2.34155 7.33563 1.68743 9 1.5375V3.79875ZM5.01282 6.07406C4.35027 6.9217 3.92917 7.93267 3.79407 9H1.53469C1.68462 7.33562 2.33874 5.75659 3.40969 4.47375L5.01282 6.07406ZM3.79875 10.5C3.93385 11.5673 4.35496 12.5783 5.0175 13.4259L3.4125 15.0262C2.34155 13.7434 1.68744 12.1644 1.5375 10.5H3.79875ZM6.07407 14.4872C6.92221 15.1481 7.93314 15.5675 9 15.7013V17.9653C7.33563 17.8154 5.7566 17.1613 4.47375 16.0903L6.07407 14.4872ZM10.5 15.7013C11.5669 15.5675 12.5778 15.1481 13.4259 14.4872L15.0263 16.0875C13.7434 17.1585 12.1644 17.8126 10.5 17.9625V15.7013ZM14.4872 13.4259C15.1481 12.5778 15.5675 11.5669 15.7013 10.5H17.9653C17.8154 12.1644 17.1613 13.7434 16.0903 15.0262L14.4872 13.4259ZM15.7013 9C15.5675 7.93313 15.1481 6.92221 14.4872 6.07406L16.0875 4.47375C17.1585 5.75659 17.8126 7.33562 17.9625 9H15.7013Z" fill="#7654FE"/>
</svg>
