<svg width="15" height="14" viewBox="0 0 15 14" fill="none" xmlns="http://www.w3.org/2000/svg">
<path d="M13.7497 0H4.41634C4.26163 0 4.11326 0.0614583 4.00386 0.170854C3.89447 0.280251 3.83301 0.428624 3.83301 0.583333V3.5H0.916341C0.761631 3.5 0.613259 3.56146 0.503862 3.67085C0.394466 3.78025 0.333008 3.92862 0.333008 4.08333V13.4167C0.333008 13.5714 0.394466 13.7197 0.503862 13.8291C0.613259 13.9385 0.761631 14 0.916341 14H10.2497C10.4044 14 10.5528 13.9385 10.6622 13.8291C10.7715 13.7197 10.833 13.5714 10.833 13.4167V10.5H13.7497C13.9044 10.5 14.0528 10.4385 14.1622 10.3291C14.2715 10.2197 14.333 10.0714 14.333 9.91667V0.583333C14.333 0.428624 14.2715 0.280251 14.1622 0.170854C14.0528 0.0614583 13.9044 0 13.7497 0ZM9.66634 12.8333H1.49967V4.66667H9.66634V12.8333ZM13.1663 9.33333H10.833V4.08333C10.833 3.92862 10.7715 3.78025 10.6622 3.67085C10.5528 3.56146 10.4044 3.5 10.2497 3.5H4.99967V1.16667H13.1663V9.33333Z" fill="#48484A"/>
</svg>
