<svg width="21" height="20" viewBox="0 0 21 20" fill="none" xmlns="http://www.w3.org/2000/svg">
<path d="M16.7497 3H7.41634C7.26163 3 7.11326 3.06146 7.00386 3.17085C6.89447 3.28025 6.83301 3.42862 6.83301 3.58333V6.5H3.91634C3.76163 6.5 3.61326 6.56146 3.50386 6.67085C3.39447 6.78025 3.33301 6.92862 3.33301 7.08333V16.4167C3.33301 16.5714 3.39447 16.7197 3.50386 16.8291C3.61326 16.9385 3.76163 17 3.91634 17H13.2497C13.4044 17 13.5528 16.9385 13.6622 16.8291C13.7715 16.7197 13.833 16.5714 13.833 16.4167V13.5H16.7497C16.9044 13.5 17.0528 13.4385 17.1622 13.3291C17.2715 13.2197 17.333 13.0714 17.333 12.9167V3.58333C17.333 3.42862 17.2715 3.28025 17.1622 3.17085C17.0528 3.06146 16.9044 3 16.7497 3ZM12.6663 15.8333H4.49967V7.66667H12.6663V15.8333ZM16.1663 12.3333H13.833V7.08333C13.833 6.92862 13.7715 6.78025 13.6622 6.67085C13.5528 6.56146 13.4044 6.5 13.2497 6.5H7.99967V4.16667H16.1663V12.3333Z" fill="#48484A"/>
</svg>
