<svg width="16" height="15" viewBox="0 0 16 15" fill="none" xmlns="http://www.w3.org/2000/svg">
<path d="M15.2801 13.7198C15.3497 13.7895 15.405 13.8722 15.4427 13.9632C15.4804 14.0543 15.4999 14.1519 15.4999 14.2504C15.4999 14.349 15.4804 14.4465 15.4427 14.5376C15.405 14.6286 15.3497 14.7114 15.2801 14.781C15.2104 14.8507 15.1277 14.906 15.0366 14.9437C14.9456 14.9814 14.848 15.0008 14.7494 15.0008C14.6509 15.0008 14.5533 14.9814 14.4623 14.9437C14.3712 14.906 14.2885 14.8507 14.2188 14.781L7.99944 8.56073L1.78007 14.781C1.63933 14.9218 1.44846 15.0008 1.24944 15.0008C1.05042 15.0008 0.859546 14.9218 0.718815 14.781C0.578085 14.6403 0.499023 14.4494 0.499023 14.2504C0.499023 14.0514 0.578085 13.8605 0.718815 13.7198L6.93913 7.50042L0.718815 1.28104C0.578085 1.14031 0.499023 0.94944 0.499023 0.750417C0.499023 0.551394 0.578085 0.360523 0.718815 0.219792C0.859546 0.0790615 1.05042 0 1.24944 0C1.44846 0 1.63933 0.0790615 1.78007 0.219792L7.99944 6.4401L14.2188 0.219792C14.3595 0.0790615 14.5504 -3.92322e-09 14.7494 0C14.9485 3.92322e-09 15.1393 0.0790615 15.2801 0.219792C15.4208 0.360523 15.4999 0.551394 15.4999 0.750417C15.4999 0.94944 15.4208 1.14031 15.2801 1.28104L9.05975 7.50042L15.2801 13.7198Z" fill="#8E8E93"/>
</svg>
