<svg width="28" height="28" viewBox="0 0 28 28" fill="none" xmlns="http://www.w3.org/2000/svg">
<g clip-path="url(#clip0_54_6460)">
<path d="M28 24.1719V5.85156C28 3.73734 26.2861 2.02344 24.1719 2.02344H3.82812C1.71391 2.02344 0 3.73734 0 5.85156V24.1719C0 26.2861 1.71391 28 3.82812 28H24.1719L28 24.1719Z" fill="#4285F4"/>
<path d="M26.9062 9.67969V23.0781H24.4453C23.6901 23.0781 23.0781 23.6901 23.0781 24.4453V26.9062H4.375C2.56266 26.9062 1.09375 25.4373 1.09375 23.625V9.67969C1.09375 7.86734 2.56266 6.39844 4.375 6.39844H23.625C25.4373 6.39844 26.9062 7.86734 26.9062 9.67969Z" fill="#1967D2"/>
<path d="M14 5.30469C14.7551 5.30469 15.3672 4.69258 15.3672 3.9375C15.3672 3.18242 14.7551 2.57031 14 2.57031C13.2449 2.57031 12.6328 3.18242 12.6328 3.9375C12.6328 4.69258 13.2449 5.30469 14 5.30469Z" fill="#1967D2"/>
<path d="M18.394 5.30469C19.1491 5.30469 19.7612 4.69258 19.7612 3.9375C19.7612 3.18242 19.1491 2.57031 18.394 2.57031C17.639 2.57031 17.0269 3.18242 17.0269 3.9375C17.0269 4.69258 17.639 5.30469 18.394 5.30469Z" fill="#1967D2"/>
<path d="M22.7881 5.30469C23.5432 5.30469 24.1553 4.69258 24.1553 3.9375C24.1553 3.18242 23.5432 2.57031 22.7881 2.57031C22.033 2.57031 21.4209 3.18242 21.4209 3.9375C21.4209 4.69258 22.033 5.30469 22.7881 5.30469Z" fill="#1967D2"/>
<path d="M9.60596 5.30469C10.361 5.30469 10.9731 4.69258 10.9731 3.9375C10.9731 3.18242 10.361 2.57031 9.60596 2.57031C8.85088 2.57031 8.23877 3.18242 8.23877 3.9375C8.23877 4.69258 8.85088 5.30469 9.60596 5.30469Z" fill="#1967D2"/>
<path d="M5.21191 5.30469C5.96699 5.30469 6.5791 4.69258 6.5791 3.9375C6.5791 3.18242 5.96699 2.57031 5.21191 2.57031C4.45684 2.57031 3.84473 3.18242 3.84473 3.9375C3.84473 4.69258 4.45684 5.30469 5.21191 5.30469Z" fill="#1967D2"/>
<path d="M14.8203 0.820312C14.8203 0.367266 14.453 0 14 0C13.547 0 13.1797 0.367266 13.1797 0.820312V3.9375C13.1797 4.39055 13.547 4.75781 14 4.75781C14.453 4.75781 14.8203 4.39055 14.8203 3.9375V0.820312Z" fill="#E6F0FF"/>
<path d="M19.2144 0.820312C19.2144 0.367266 18.8471 0 18.394 0C17.941 0 17.5737 0.367266 17.5737 0.820312V3.9375C17.5737 4.39055 17.941 4.75781 18.394 4.75781C18.8471 4.75781 19.2144 4.39055 19.2144 3.9375V0.820312Z" fill="#E6F0FF"/>
<path d="M23.6084 0.820312C23.6084 0.367266 23.2411 0 22.7881 0C22.335 0 21.9678 0.367266 21.9678 0.820312V3.9375C21.9678 4.39055 22.335 4.75781 22.7881 4.75781C23.2411 4.75781 23.6084 4.39055 23.6084 3.9375V0.820312Z" fill="#E6F0FF"/>
<path d="M10.4263 0.820312C10.4263 0.367266 10.059 0 9.60596 0C9.15291 0 8.78564 0.367266 8.78564 0.820312V3.9375C8.78564 4.39055 9.15291 4.75781 9.60596 4.75781C10.059 4.75781 10.4263 4.39055 10.4263 3.9375V0.820312Z" fill="#E6F0FF"/>
<path d="M6.03223 0.820312C6.03223 0.367266 5.66496 0 5.21191 0C4.75887 0 4.3916 0.367266 4.3916 0.820312V3.9375C4.3916 4.39055 4.75887 4.75781 5.21191 4.75781C5.66496 4.75781 6.03223 4.39055 6.03223 3.9375V0.820312Z" fill="#E6F0FF"/>
<path d="M28.0001 18.9197V24.1719L24.172 28H12.9807L7.52783 22.5471L10.4607 18.3701L7.52783 15.4372L9.79627 12.5628L12.8495 11.5303L15.7977 14.4785L17.0533 12.2489L19.8714 10.791L28.0001 18.9197Z" fill="url(#paint0_linear_54_6460)"/>
<path d="M7.52783 22.5471V21.9866C7.52783 21.4036 7.61807 20.8797 7.79799 20.4143C7.97791 19.9489 8.21088 19.5174 8.4958 19.1193C8.78072 18.7212 9.08096 18.3307 9.39705 17.9479C9.7044 17.5739 9.99697 17.1905 10.2748 16.7962C10.5526 16.4024 10.7801 15.9753 10.9556 15.5143C11.1312 15.0539 11.2192 14.5365 11.2192 13.9623C11.2192 13.6867 11.1782 13.4493 11.0956 13.2514C11.0131 13.0534 10.843 12.9544 10.5849 12.9544C10.1933 12.9544 9.99752 13.3039 9.99752 14.0028V15.4378H7.52729C7.52291 15.3355 7.51744 15.2196 7.51033 15.0905C7.50377 14.9614 7.50049 14.8367 7.50049 14.7164C7.50049 13.871 7.58963 13.1535 7.76736 12.5634C7.9451 11.9739 8.2601 11.5243 8.71182 11.2148C9.16354 10.9053 9.799 10.751 10.6177 10.751C11.5922 10.751 12.3502 11.025 12.8905 11.5724C13.4313 12.1199 13.7015 12.9008 13.7015 13.9158C13.7015 14.606 13.6124 15.2097 13.4346 15.7281C13.2563 16.2466 13.0206 16.7185 12.727 17.1435C12.4333 17.5684 12.1106 17.9922 11.759 18.4149C11.5096 18.713 11.2685 19.0182 11.0349 19.3293C10.8014 19.641 10.5953 19.9746 10.4175 20.3307H13.6217V22.5471H7.52674H7.52783ZM17.4744 22.5537V20.691H13.9897V18.8552L16.2128 10.791H19.8708V18.7283H20.4981V20.691H19.8708V22.5537H17.4744ZM16.0859 18.7283H17.4744V12.8067L16.0859 18.7283Z" fill="#E6F0FF"/>
</g>
<defs>
<linearGradient id="paint0_linear_54_6460" x1="9.69455" y1="12.664" x2="24.6013" y2="27.5707" gradientUnits="userSpaceOnUse">
<stop stop-opacity="0.5"/>
<stop offset="1" stop-opacity="0"/>
</linearGradient>
<clipPath id="clip0_54_6460">
<rect width="28" height="28" fill="white"/>
</clipPath>
</defs>
</svg>
