<svg width="24" height="24" viewBox="0 0 24 24" fill="none" xmlns="http://www.w3.org/2000/svg">
<path d="M21.9396 11.2165C21.909 11.1474 21.1679 9.50325 19.5203 7.85562C17.3249 5.66025 14.552 4.5 11.5 4.5C8.448 4.5 5.67512 5.66025 3.47974 7.85562C1.83212 9.50325 1.08749 11.15 1.06037 11.2165C1.02057 11.306 1 11.4029 1 11.5009C1 11.5988 1.02057 11.6957 1.06037 11.7852C1.09099 11.8544 1.83212 13.4976 3.47974 15.1453C5.67512 17.3398 8.448 18.5 11.5 18.5C14.552 18.5 17.3249 17.3398 19.5203 15.1453C21.1679 13.4976 21.909 11.8544 21.9396 11.7852C21.9794 11.6957 22 11.5988 22 11.5009C22 11.4029 21.9794 11.306 21.9396 11.2165ZM11.5 17.1C8.80675 17.1 6.45387 16.1209 4.50612 14.1906C3.70693 13.3959 3.02701 12.4896 2.48749 11.5C3.02686 10.5103 3.7068 9.60403 4.50612 8.80937C6.45387 6.87913 8.80675 5.9 11.5 5.9C14.1933 5.9 16.5461 6.87913 18.4939 8.80937C19.2946 9.60384 19.976 10.5101 20.5169 11.5C19.886 12.6777 17.1376 17.1 11.5 17.1ZM11.5 7.3C10.6693 7.3 9.85729 7.54633 9.1666 8.00783C8.47592 8.46933 7.93759 9.12528 7.6197 9.89273C7.30181 10.6602 7.21864 11.5047 7.3807 12.3194C7.54276 13.1341 7.94277 13.8825 8.53015 14.4698C9.11753 15.0572 9.8659 15.4572 10.6806 15.6193C11.4953 15.7814 12.3398 15.6982 13.1073 15.3803C13.8747 15.0624 14.5307 14.5241 14.9922 13.8334C15.4537 13.1427 15.7 12.3307 15.7 11.5C15.6988 10.3864 15.256 9.31883 14.4686 8.53143C13.6812 7.74403 12.6136 7.30116 11.5 7.3ZM11.5 14.3C10.9462 14.3 10.4049 14.1358 9.9444 13.8281C9.48394 13.5204 9.12506 13.0831 8.91314 12.5715C8.70121 12.0599 8.64576 11.4969 8.7538 10.9537C8.86184 10.4106 9.12851 9.91169 9.5201 9.5201C9.91169 9.12851 10.4106 8.86184 10.9537 8.7538C11.4969 8.64576 12.0599 8.70121 12.5715 8.91314C13.0831 9.12506 13.5204 9.48395 13.8281 9.9444C14.1358 10.4049 14.3 10.9462 14.3 11.5C14.3 12.2426 14.005 12.9548 13.4799 13.4799C12.9548 14.005 12.2426 14.3 11.5 14.3Z" fill="#C7C7CC"/>
</svg>
