<svg width="18" height="20" viewBox="0 0 18 20" fill="none" xmlns="http://www.w3.org/2000/svg">
<path d="M16.5 1.75H14.25V1C14.25 0.801088 14.171 0.610322 14.0303 0.46967C13.8897 0.329018 13.6989 0.25 13.5 0.25C13.3011 0.25 13.1103 0.329018 12.9697 0.46967C12.829 0.610322 12.75 0.801088 12.75 1V1.75H5.25V1C5.25 0.801088 5.17098 0.610322 5.03033 0.46967C4.88968 0.329018 4.69891 0.25 4.5 0.25C4.30109 0.25 4.11032 0.329018 3.96967 0.46967C3.82902 0.610322 3.75 0.801088 3.75 1V1.75H1.5C1.10218 1.75 0.720644 1.90804 0.43934 2.18934C0.158035 2.47064 0 2.85218 0 3.25V18.25C0 18.6478 0.158035 19.0294 0.43934 19.3107C0.720644 19.592 1.10218 19.75 1.5 19.75H16.5C16.8978 19.75 17.2794 19.592 17.5607 19.3107C17.842 19.0294 18 18.6478 18 18.25V3.25C18 2.85218 17.842 2.47064 17.5607 2.18934C17.2794 1.90804 16.8978 1.75 16.5 1.75ZM3.75 3.25V4C3.75 4.19891 3.82902 4.38968 3.96967 4.53033C4.11032 4.67098 4.30109 4.75 4.5 4.75C4.69891 4.75 4.88968 4.67098 5.03033 4.53033C5.17098 4.38968 5.25 4.19891 5.25 4V3.25H12.75V4C12.75 4.19891 12.829 4.38968 12.9697 4.53033C13.1103 4.67098 13.3011 4.75 13.5 4.75C13.6989 4.75 13.8897 4.67098 14.0303 4.53033C14.171 4.38968 14.25 4.19891 14.25 4V3.25H16.5V6.25H1.5V3.25H3.75ZM16.5 18.25H1.5V7.75H16.5V18.25ZM10.125 11.125C10.125 11.3475 10.059 11.565 9.9354 11.75C9.81179 11.935 9.63608 12.0792 9.43052 12.1644C9.22495 12.2495 8.99875 12.2718 8.78052 12.2284C8.56229 12.185 8.36184 12.0778 8.2045 11.9205C8.04717 11.7632 7.94002 11.5627 7.89662 11.3445C7.85321 11.1262 7.87549 10.9 7.96064 10.6945C8.04578 10.4889 8.18998 10.3132 8.37498 10.1896C8.55999 10.066 8.7775 10 9 10C9.29837 10 9.58452 10.1185 9.79549 10.3295C10.0065 10.5405 10.125 10.8266 10.125 11.125ZM14.25 11.125C14.25 11.3475 14.184 11.565 14.0604 11.75C13.9368 11.935 13.7611 12.0792 13.5555 12.1644C13.35 12.2495 13.1238 12.2718 12.9055 12.2284C12.6873 12.185 12.4868 12.0778 12.3295 11.9205C12.1722 11.7632 12.065 11.5627 12.0216 11.3445C11.9782 11.1262 12.0005 10.9 12.0856 10.6945C12.1708 10.4889 12.315 10.3132 12.5 10.1896C12.685 10.066 12.9025 10 13.125 10C13.4234 10 13.7095 10.1185 13.9205 10.3295C14.1315 10.5405 14.25 10.8266 14.25 11.125ZM6 14.875C6 15.0975 5.93402 15.315 5.8104 15.5C5.68679 15.685 5.51109 15.8292 5.30552 15.9144C5.09995 15.9995 4.87375 16.0218 4.65552 15.9784C4.43729 15.935 4.23684 15.8278 4.0795 15.6705C3.92217 15.5132 3.81502 15.3127 3.77162 15.0945C3.72821 14.8762 3.75049 14.65 3.83564 14.4445C3.92078 14.2389 4.06498 14.0632 4.24998 13.9396C4.43499 13.816 4.6525 13.75 4.875 13.75C5.17337 13.75 5.45952 13.8685 5.6705 14.0795C5.88147 14.2905 6 14.5766 6 14.875ZM10.125 14.875C10.125 15.0975 10.059 15.315 9.9354 15.5C9.81179 15.685 9.63608 15.8292 9.43052 15.9144C9.22495 15.9995 8.99875 16.0218 8.78052 15.9784C8.56229 15.935 8.36184 15.8278 8.2045 15.6705C8.04717 15.5132 7.94002 15.3127 7.89662 15.0945C7.85321 14.8762 7.87549 14.65 7.96064 14.4445C8.04578 14.2389 8.18998 14.0632 8.37498 13.9396C8.55999 13.816 8.7775 13.75 9 13.75C9.29837 13.75 9.58452 13.8685 9.79549 14.0795C10.0065 14.2905 10.125 14.5766 10.125 14.875ZM14.25 14.875C14.25 15.0975 14.184 15.315 14.0604 15.5C13.9368 15.685 13.7611 15.8292 13.5555 15.9144C13.35 15.9995 13.1238 16.0218 12.9055 15.9784C12.6873 15.935 12.4868 15.8278 12.3295 15.6705C12.1722 15.5132 12.065 15.3127 12.0216 15.0945C11.9782 14.8762 12.0005 14.65 12.0856 14.4445C12.1708 14.2389 12.315 14.0632 12.5 13.9396C12.685 13.816 12.9025 13.75 13.125 13.75C13.4234 13.75 13.7095 13.8685 13.9205 14.0795C14.1315 14.2905 14.25 14.5766 14.25 14.875Z" fill="#AEAEB2"/>
</svg>
