<svg width="32" height="32" viewBox="0 0 32 32" fill="none" xmlns="http://www.w3.org/2000/svg">
<g clip-path="url(#clip0_54_6483)">
<mask id="mask0_54_6483" style="mask-type:luminance" maskUnits="userSpaceOnUse" x="0" y="0" width="32" height="32">
<path d="M0 0H32V32H0V0Z" fill="white"/>
</mask>
<g mask="url(#mask0_54_6483)">
<path d="M25.8669 6.39992C26.1965 5.96043 25.8829 5.33325 25.3336 5.33325H6.6669C6.11754 5.33325 5.80395 5.96043 6.13356 6.39992L12.8002 15.2888C13.1464 15.7504 13.3336 16.3119 13.3336 16.8888V25.5879C13.3336 26.0835 13.8552 26.4059 14.2984 26.1841L18.2984 24.1841C18.5242 24.0712 18.6669 23.8404 18.6669 23.5879V16.8888C18.6669 16.3119 18.8541 15.7504 19.2002 15.2888L25.8669 6.39992Z" fill="#FF9600"/>
<path fill-rule="evenodd" clip-rule="evenodd" d="M4.14077 4.73699C4.36663 4.28527 4.82831 3.99994 5.33335 3.99994H26.6667C27.1717 3.99994 27.6333 4.28527 27.8592 4.73699C28.0851 5.1887 28.0364 5.72925 27.7333 6.13327L20.2667 16.0888C20.0936 16.3196 20 16.6003 20 16.8888V23.9999C20 24.505 19.7147 24.9667 19.2629 25.1926L13.9296 27.8592C13.5163 28.0659 13.0255 28.0438 12.6324 27.8008C12.2393 27.5579 12 27.1287 12 26.6666V16.8888C12 16.6003 11.9064 16.3196 11.7333 16.0888L4.26668 6.13327C3.96365 5.72925 3.91492 5.1887 4.14077 4.73699ZM9.33335 6.66661C8.78397 6.66661 8.47039 7.29378 8.80001 7.73327L13.8667 14.4888C14.386 15.1812 14.6667 16.0234 14.6667 16.8888V23.4306C14.6667 23.9262 15.1883 24.2484 15.6315 24.0268L16.9648 23.3602C17.1907 23.2472 17.3333 23.0164 17.3333 22.7639V16.8888C17.3333 16.0234 17.614 15.1812 18.1333 14.4888L23.2 7.73327C23.5296 7.29378 23.216 6.66661 22.6667 6.66661H9.33335Z" fill="#FF9600"/>
<path fill-rule="evenodd" clip-rule="evenodd" d="M19.859 23.4036C20.1884 24.0623 19.9214 24.8632 19.2628 25.1926L13.9294 27.8592C13.2708 28.1886 12.4699 27.9215 12.1406 27.263C11.8112 26.6043 12.0782 25.8034 12.7368 25.474L18.0702 22.8074C18.7288 22.478 19.5297 22.7451 19.859 23.4036Z" fill="#CD7900"/>
</g>
</g>
<defs>
<clipPath id="clip0_54_6483">
<rect width="32" height="32" fill="white"/>
</clipPath>
</defs>
</svg>
