<svg width="10" height="8" viewBox="0 0 10 8" fill="none" xmlns="http://www.w3.org/2000/svg">
<path d="M9.5002 0.499703L0.500201 0.499703C0.409081 0.499989 0.319763 0.525121 0.241863 0.572392C0.163963 0.619664 0.10043 0.687286 0.0581036 0.76798C0.0157766 0.848673 -0.00374126 0.939384 0.00164986 1.03034C0.00704098 1.12131 0.037138 1.20907 0.0887012 1.2842L4.5887 7.7842C4.7752 8.0537 5.2242 8.0537 5.4112 7.7842L9.9112 1.2842C9.96329 1.20923 9.99383 1.12142 9.99952 1.03031C10.0052 0.939193 9.98581 0.848264 9.94344 0.7674C9.90108 0.686535 9.83736 0.618826 9.75922 0.571631C9.68108 0.524436 9.59149 0.499559 9.5002 0.499703Z" fill="white"/>
</svg>
