<svg width="176" height="58" viewBox="0 0 176 58" fill="none" xmlns="http://www.w3.org/2000/svg">
<g clip-path="url(#clip0_213_888)">
<path fill-rule="evenodd" clip-rule="evenodd" d="M26.167 0.114269C21.2132 -0.475291 19.5945 1.1938 20.0149 5.99904C24.3661 6.42523 26.5611 4.61917 26.167 0.114269ZM39.9568 0.150699C35.0031 -0.438861 33.3843 1.23023 33.8047 6.03547C38.1559 6.46166 40.351 4.6556 39.9568 0.150699ZM17.5554 4.86668C12.6016 4.27712 10.9829 5.9462 11.4033 10.7514C15.7545 11.1776 17.9495 9.37158 17.5554 4.86668ZM8.94376 9.58255C3.99002 8.99299 2.37127 10.6621 2.79168 15.4673C7.14286 15.8935 9.33789 14.0875 8.94376 9.58255ZM36.2562 11.5132H29.6979C24.5749 11.5132 19.5314 12.7826 15.0134 15.2192L8.72888 18.7566C5.13836 21.1711 3.94152 23.5855 3.94152 27.2027V35.6489L6.44119 37.5441C6.37495 37.3221 6.33962 37.0914 6.3352 36.8561V28.41C6.3352 23.5811 8.72888 21.1711 11.1226 21.1711C11.1226 21.1711 8.72888 22.3783 8.72888 28.41V39.2706L11.2286 41.1657C11.1623 40.9438 11.127 40.713 11.1226 40.4778V32.0317C11.1226 27.2027 13.5162 24.7927 15.9099 24.7927C15.9099 24.7927 13.5162 26 13.5162 32.0317V42.8923L16.0159 44.7874C15.9497 44.5655 15.9143 44.3347 15.9099 44.0995V35.6533C15.9099 30.8244 18.3036 28.4144 20.6973 28.4144C20.6973 28.4144 18.3036 29.6216 18.3036 35.6533V46.5139L20.8165 48.4091C20.7414 48.1872 20.7017 47.9564 20.6973 47.7212V37.8858C20.578 33.0569 22.8392 31.2017 26.7875 32.0228C27.5648 32.2403 28.3774 32.3201 29.1812 32.2536C29.4991 32.2225 29.7994 32.076 30.0203 31.8408C30.2411 31.6056 30.3692 31.2949 30.378 30.9709V29.9678C30.3824 29.8169 30.3382 29.666 30.2499 29.5417C30.1616 29.4175 30.0335 29.3287 29.8878 29.2888L26.7742 28.4055C27.5162 27.6155 28.4127 26.9941 29.4108 26.5769C30.4089 26.1597 31.4777 25.96 32.5553 25.9911H35.0329C35.2581 25.9911 35.2581 25.7603 35.1389 25.5561C35.0763 25.4428 35.0032 25.3106 34.9219 25.1637L34.9218 25.1636C34.3023 24.0444 33.2097 22.0704 32.7452 21.0778C32.4139 20.3633 32.2815 19.5732 32.361 18.7921C32.4404 18.0065 32.7231 17.2609 33.1868 16.6262C34.1938 15.419 36.0972 15.1305 37.5679 15.1305V12.716C37.5679 12.5474 37.5325 12.3787 37.4663 12.2234C37.4 12.068 37.2985 11.9304 37.1748 11.815C37.0512 11.6996 36.9054 11.6153 36.7464 11.5621C36.5874 11.5088 36.4196 11.491 36.2518 11.5088L36.2562 11.5132ZM27.7856 19.5999C27.0657 20.4698 26.1648 21.1666 25.149 21.646C24.1332 22.1253 23.0203 22.3738 21.8985 22.3738V18.7522H18.308C18.308 17.7935 18.6878 16.8703 19.3591 16.1912C20.0304 15.5122 20.9446 15.1305 21.8985 15.1305H31.4733L27.7856 19.5954V19.5999ZM33.8817 30.3844V31.9263C35.1104 31.9263 37.5679 33.1314 37.5679 37.952V28.3152L34.716 29.2412C34.4711 29.321 34.258 29.4761 34.1084 29.6799C33.9588 29.8837 33.8772 30.1318 33.8772 30.3844H33.8817ZM26.3326 34.1473C28.4466 34.4914 30.5962 34.5928 32.7369 34.4473L32.7458 34.4561C34.6903 34.4561 35.172 35.3074 35.1006 39.2552V49.6784C34.3201 49.9342 33.504 50.0577 32.6834 50.0489V38.0555C32.6834 37.7379 32.5585 37.4335 32.3311 37.2086C32.1036 36.9836 31.7959 36.8557 31.4748 36.8557H26.6404L29.5526 39.7449C29.7756 39.9698 29.954 40.2345 30.0789 40.5256C30.1993 40.8167 30.2617 41.1299 30.2617 41.4475V50.0445H27.8445V42.2106C27.8445 42.0342 27.8044 41.8577 27.7286 41.6989C27.6527 41.5401 27.5457 41.399 27.4075 41.2843L25.4273 39.6434V50.0401H23.0101V38.0466C22.9967 34.1473 24.7271 33.8342 26.3326 34.1473ZM35.3126 21.6343C35.3126 21.6343 36.5698 21.828 37.568 21.3439C37.568 21.6091 37.5669 22.0139 37.5656 22.4744V22.4746C37.5624 23.6161 37.5582 25.1001 37.568 25.6497C36.773 24.3248 36.0253 23.0059 35.3126 21.6343Z" fill="white"/>
</g>
<g clip-path="url(#clip1_213_888)">
<path fill-rule="evenodd" clip-rule="evenodd" d="M70.0125 28.3915C69.4596 27.6925 68.9009 26.9862 68.3331 26.2695C71.7604 23.4552 75.146 20.6779 78.5923 17.8508L82.0515 15.0129H71.4568C71.4454 15.0386 71.4347 15.0642 71.424 15.0899C71.4133 15.1155 71.4026 15.1412 71.3912 15.1668L72.5674 15.9795C73.6319 16.715 74.7057 17.457 75.8099 18.2187C74.9404 18.9653 74.0824 19.7015 73.2308 20.4322L73.2267 20.4357C72.1911 21.3242 71.165 22.2046 70.1389 23.0859L70.1256 23.0974C68.2672 24.695 66.4089 26.2926 64.5478 27.8931C64.5875 27.9593 64.6192 28.0149 64.6467 28.0631L64.6467 28.0631C64.6962 28.1498 64.732 28.2125 64.776 28.2693C65.5309 29.2602 66.2814 30.2548 67.032 31.2494L67.0321 31.2496C68.945 33.7844 70.858 36.3194 72.8432 38.7957C73.8901 40.1008 75.1481 41.309 76.5145 42.2779C78.3031 43.546 81.0274 43.2923 82.8245 41.9445C80.5224 41.3248 79.1023 39.6404 77.6911 37.9667L77.5443 37.7926C76.4229 36.4666 75.3418 35.1064 74.2604 33.7457L74.2595 33.7446C74.0537 33.4857 73.848 33.2269 73.6419 32.9683C72.4372 31.4566 71.2392 29.9421 70.0126 28.3915L70.0125 28.3915ZM55.3882 42.3916H67.877H67.8798L67.934 42.2377C67.5876 42.0121 67.2426 41.7842 66.8978 41.5563L66.8978 41.5563L66.8978 41.5563C66.0841 41.0187 65.271 40.4815 64.4396 39.9751C63.9204 39.6588 63.7264 39.3055 63.7264 38.6871C63.7492 32.1188 63.7578 25.5533 63.7207 18.9878C63.7178 18.1729 63.966 17.7027 64.6621 17.298C65.4403 16.8446 66.19 16.3397 67.0009 15.7937C67.3671 15.5471 67.7457 15.2922 68.1451 15.0298H55.6506C56.7147 15.9074 57.7929 16.6882 58.9425 17.3465C59.6129 17.7312 59.7727 18.1899 59.7698 18.9137C59.7413 25.3111 59.727 31.7084 59.7812 38.1029C59.7926 39.1544 59.553 39.8156 58.5831 40.3199C57.8676 40.6918 57.1996 41.1532 56.4706 41.6567C56.1271 41.894 55.7701 42.1406 55.3882 42.3916ZM147.767 25.1774L149.34 24.6825L149.34 24.6824C151.261 24.0777 153.051 23.5145 154.842 22.9547C154.927 22.9287 155.018 22.9172 155.143 22.9013C155.21 22.8928 155.287 22.8831 155.378 22.8692V23.8979C155.378 24.9901 155.379 26.0823 155.379 27.1745V27.1746V27.1747V27.1749V27.175V27.1751C155.381 30.7248 155.384 34.275 155.364 37.8268C155.361 38.4451 155.526 38.8013 156.103 39.0749C156.833 39.4199 157.543 39.8082 158.325 40.2358L158.325 40.2359C158.66 40.4193 159.009 40.6099 159.378 40.8075L157.371 41.4352C155.563 42.001 153.815 42.5483 151.989 43.1185V38.9153C151.833 39.0889 151.692 39.2458 151.563 39.3905C151.26 39.7282 151.017 39.9999 150.765 40.2632C149.365 41.7193 147.707 42.7053 145.656 42.8848C141.857 43.2211 138.904 40.4826 138.839 36.5331C138.793 33.7889 138.799 31.0419 138.844 28.2949C138.859 27.5426 138.653 27.1123 137.951 26.796C137.291 26.5001 136.655 26.1479 135.951 25.7579L135.95 25.7579C135.617 25.5731 135.268 25.3799 134.893 25.1803C136.531 24.6666 138.083 24.1789 139.631 23.6925L139.653 23.6857L139.708 23.6685C140.641 23.3751 141.574 23.082 142.524 22.7837V23.8751C142.524 24.6163 142.524 25.3575 142.524 26.0988V26.099V26.0992V26.0994V26.0996C142.523 29.0663 142.522 32.034 142.536 35C142.538 35.6155 142.604 36.2452 142.732 36.8465C143.235 39.2117 145.189 40.457 147.668 39.944C148.432 39.7873 149.191 39.4881 149.89 39.1347C151.148 38.4964 151.875 37.6102 151.778 35.9973C151.65 33.867 151.687 31.7237 151.725 29.5839C151.734 29.0618 151.743 28.5399 151.75 28.0185C151.755 27.4514 151.576 27.1607 151.065 26.9185C150.338 26.5721 149.628 26.1882 148.839 25.7609C148.498 25.5765 148.143 25.3841 147.764 25.1831L147.767 25.1774ZM116.471 31.3893H116.471C116.447 31.1512 116.427 30.9225 116.409 30.7005V30.7004V30.7004C116.37 30.2462 116.334 29.8199 116.263 29.3975C115.864 27.0152 114.931 24.9379 112.683 23.7296C109.194 21.8574 104.202 22.8577 101.809 26.0036C99.0361 29.6482 98.8079 33.6833 100.596 37.7753C101.977 40.9326 104.55 42.6624 108.039 42.8789C111.422 43.0926 114.001 41.7191 115.664 38.7727C116.01 38.1631 116.269 37.5052 116.528 36.847L116.528 36.8469L116.528 36.8468L116.529 36.8467L116.529 36.8466L116.529 36.8466C116.647 36.5449 116.766 36.2431 116.893 35.9459C116.851 35.9188 116.807 35.8917 116.764 35.8647L116.674 35.8088L116.634 35.7834C115.325 37.3393 113.798 38.5874 111.776 39.032C109.751 39.4765 107.759 39.4081 105.937 38.2797C103.846 36.9831 102.365 33.5921 102.941 31.3893H116.471L116.471 31.3922V31.3893ZM102.998 30.0301C103.538 30.0301 104.075 30.0304 104.611 30.0306C107.1 30.0319 109.551 30.0331 112.001 30.0073C112.167 30.0073 112.458 29.6938 112.475 29.5058C112.612 28.081 112.315 26.7445 111.414 25.5961C110.703 24.6871 109.785 24.1713 108.592 24.0801C105.58 23.8522 103.084 27.2061 102.998 30.0272V30.0301ZM160.175 40.2331L160.173 40.2348V40.2319L160.175 40.2331ZM160.175 40.2331L161.254 39.0319L161.263 39.0213L161.272 39.0114L161.322 38.9561C161.978 38.225 162.626 37.5031 163.3 36.7526C163.674 37.1692 164.051 37.5756 164.425 37.9789C165.305 38.9275 166.17 39.8588 166.934 40.8645C167.736 41.9217 168.626 41.9189 169.695 41.5997C171.07 41.1894 171.975 40.3089 172.177 38.8784C172.337 37.7528 171.923 36.744 170.894 36.2225C170.082 35.8108 169.23 35.4784 168.378 35.146L168.378 35.146C167.938 34.9747 167.499 34.8033 167.065 34.6211C166.683 34.4603 166.298 34.3061 165.912 34.1518L165.912 34.1517L165.912 34.1517L165.912 34.1516L165.912 34.1516C164.903 33.7481 163.894 33.3444 162.949 32.823C161.183 31.8484 160.396 30.2298 160.479 28.218C160.57 25.9811 161.654 24.3825 163.751 23.5931C167.753 22.0914 171.473 22.8294 175.115 25.1946C174.707 25.6858 174.308 26.1647 173.91 26.6423L173.905 26.6483C173.347 27.3186 172.79 27.9865 172.211 28.6825C171.853 28.2684 171.496 27.8637 171.143 27.4633L171.143 27.4623C170.289 26.4937 169.459 25.5514 168.68 24.5677C168.169 23.9208 167.624 23.8239 166.908 23.9835C165.285 24.3454 164.221 25.3741 164.007 26.8075C163.796 28.2408 164.401 29.4747 165.99 30.207C166.781 30.5707 167.616 30.8354 168.451 31.1001C169.102 31.3063 169.752 31.5126 170.383 31.7658C170.63 31.8652 170.881 31.9614 171.134 32.0582C172.216 32.4716 173.321 32.8941 174.151 33.6123C176.547 35.6783 175.991 39.776 173.253 41.5085C170.705 43.1157 167.95 43.1727 165.128 42.503C163.383 42.0871 161.715 41.4719 160.175 40.2331ZM133.972 25.2031C133.539 25.7206 133.124 26.2162 132.716 26.7036C132.161 27.3676 131.618 28.0165 131.057 28.6853C130.702 28.277 130.352 27.877 130.006 27.4818L130.006 27.4815C129.121 26.4703 128.263 25.4909 127.437 24.485C127.043 24.0063 126.638 23.8553 126.047 23.9322C124.407 24.1488 123.178 25.1974 122.875 26.6877C122.593 28.0812 123.195 29.4376 124.724 30.1529C125.838 30.674 127.025 31.0489 128.209 31.4231C128.54 31.5278 128.87 31.6324 129.2 31.7401C129.349 31.7889 129.499 31.8368 129.649 31.8846L129.649 31.8847L129.649 31.8847C130.882 32.2782 132.116 32.672 133.065 33.6094C135.338 35.8521 134.814 39.8301 132.047 41.5456C129.513 43.1157 126.783 43.1698 123.991 42.5087C122.245 42.0955 120.573 41.4772 119.024 40.2404C119.89 39.2706 120.735 38.3265 121.615 37.3421L121.619 37.3383L122.145 36.7497L123.038 37.7476L123.048 37.7589C123.929 38.7431 124.786 39.7012 125.645 40.6593C126.826 41.9758 127.879 42.1383 129.416 41.2406C131.59 39.9697 131.641 37.2455 129.442 36.0373C128.779 35.6734 128.058 35.4171 127.335 35.1602L127.335 35.1602C126.852 34.9886 126.369 34.8168 125.902 34.6125C125.494 34.4329 125.078 34.2623 124.662 34.0914C123.446 33.5924 122.226 33.0915 121.172 32.3613C118.323 30.3865 118.653 25.1176 122.459 23.6501C126.527 22.08 130.284 22.818 133.975 25.2031H133.972ZM94.579 42.3776H94.5832V42.3805C94.5818 42.3795 94.5804 42.3786 94.579 42.3776ZM83.7033 42.3776H94.579C94.2481 42.1545 93.9306 41.9429 93.6239 41.7385C92.7849 41.1794 92.0266 40.6741 91.2942 40.1321C91.0232 39.9327 90.7522 39.5223 90.7493 39.206C90.7094 36.0914 90.6894 32.9768 90.7379 29.8622C90.7721 27.6794 92.9544 25.9269 95.0825 26.4028C95.7597 26.5544 96.4064 26.844 97.0743 27.143C97.3853 27.2823 97.7009 27.4236 98.0264 27.554C98.0808 27.3077 98.1373 27.0566 98.1948 26.8016C98.4052 25.8672 98.6275 24.8799 98.8023 23.8837C98.8308 23.7213 98.4999 23.3907 98.2717 23.3081C95.4818 22.3079 92.7433 23.368 91.2257 26.0067C91.103 26.2202 90.9876 26.4373 90.8724 26.6542C90.8108 26.7701 90.7492 26.886 90.6866 27.0012C90.6566 26.9912 90.6259 26.982 90.5953 26.9727C90.5646 26.9634 90.5339 26.9542 90.504 26.9442V22.8066C88.6085 23.3966 86.7828 23.9663 84.8624 24.5655C84.2974 24.7418 83.7242 24.9207 83.1385 25.1034C83.543 25.3163 83.9234 25.5197 84.2882 25.7147C85.0658 26.1305 85.7729 26.5086 86.4932 26.8616C86.961 27.0895 87.1408 27.3716 87.1379 27.9045C87.1284 29.4683 87.1278 31.0326 87.1272 32.597C87.1265 34.7698 87.1257 36.9428 87.1008 39.1148C87.0951 39.4853 86.8184 39.9498 86.5246 40.2034C85.928 40.7171 85.2945 41.1884 84.6044 41.702C84.3145 41.9177 84.0147 42.1408 83.7033 42.3776Z" fill="white"/>
</g>
<defs>
<clipPath id="clip0_213_888">
<rect width="42.6051" height="50.0487" fill="white" transform="translate(0.0625 0.000732422)"/>
</clipPath>
<clipPath id="clip1_213_888">
<rect width="120.744" height="28.5243" fill="white" transform="translate(55.1943 14.7378)"/>
</clipPath>
</defs>
</svg>
