<svg width="17" height="20" viewBox="0 0 17 20" fill="none" xmlns="http://www.w3.org/2000/svg">
<path d="M16.75 9.25059V18.2506C16.75 18.6484 16.592 19.0299 16.3107 19.3112C16.0294 19.5926 15.6478 19.7506 15.25 19.7506H1.75C1.35218 19.7506 0.970644 19.5926 0.68934 19.3112C0.408035 19.0299 0.25 18.6484 0.25 18.2506V9.25059C0.25 8.85277 0.408035 8.47123 0.68934 8.18993C0.970644 7.90863 1.35218 7.75059 1.75 7.75059H4C4.19891 7.75059 4.38968 7.82961 4.53033 7.97026C4.67098 8.11091 4.75 8.30168 4.75 8.50059C4.75 8.6995 4.67098 8.89027 4.53033 9.03092C4.38968 9.17157 4.19891 9.25059 4 9.25059H1.75V18.2506H15.25V9.25059H13C12.8011 9.25059 12.6103 9.17157 12.4697 9.03092C12.329 8.89027 12.25 8.6995 12.25 8.50059C12.25 8.30168 12.329 8.11091 12.4697 7.97026C12.6103 7.82961 12.8011 7.75059 13 7.75059H15.25C15.6478 7.75059 16.0294 7.90863 16.3107 8.18993C16.592 8.47123 16.75 8.85277 16.75 9.25059ZM5.28063 5.28122L7.75 2.8109V11.5006C7.75 11.6995 7.82902 11.8903 7.96967 12.0309C8.11032 12.1716 8.30109 12.2506 8.5 12.2506C8.69891 12.2506 8.88968 12.1716 9.03033 12.0309C9.17098 11.8903 9.25 11.6995 9.25 11.5006V2.8109L11.7194 5.28122C11.8601 5.42195 12.051 5.50101 12.25 5.50101C12.449 5.50101 12.6399 5.42195 12.7806 5.28122C12.9214 5.14048 13.0004 4.94961 13.0004 4.75059C13.0004 4.55157 12.9214 4.3607 12.7806 4.21996L9.03063 0.469965C8.96097 0.400233 8.87825 0.344913 8.7872 0.30717C8.69616 0.269427 8.59856 0.25 8.5 0.25C8.40144 0.25 8.30384 0.269427 8.21279 0.30717C8.12175 0.344913 8.03903 0.400233 7.96937 0.469965L4.21937 4.21996C4.07864 4.3607 3.99958 4.55157 3.99958 4.75059C3.99958 4.94961 4.07864 5.14048 4.21938 5.28121C4.36011 5.42195 4.55098 5.50101 4.75 5.50101C4.94902 5.50101 5.13989 5.42195 5.28063 5.28122Z" fill="white"/>
</svg>
