<svg width="24" height="24" viewBox="0 0 24 24" fill="none" xmlns="http://www.w3.org/2000/svg">
<path d="M7.1333 14.504L11.6784 8.67107C11.7206 8.61684 11.7708 8.57382 11.8259 8.54446C11.8811 8.51511 11.9403 8.5 12 8.5C12.0597 8.5 12.1189 8.51511 12.1741 8.54446C12.2292 8.57382 12.2794 8.61684 12.3216 8.67107L16.8667 14.504C16.9303 14.5856 16.9737 14.6896 16.9912 14.8028C17.0088 14.916 16.9998 15.0333 16.9654 15.14C16.931 15.2466 16.8726 15.3378 16.7978 15.4018C16.723 15.4659 16.6351 15.5001 16.5451 15.5H7.45487C7.36492 15.5001 7.27698 15.4659 7.20217 15.4018C7.12736 15.3378 7.06905 15.2466 7.03462 15.14C7.00019 15.0333 6.99119 14.916 7.00875 14.8028C7.02632 14.6896 7.06967 14.5856 7.1333 14.504Z" fill="#34C759"/>
</svg>
