<svg width="24" height="24" viewBox="0 0 24 24" fill="none" xmlns="http://www.w3.org/2000/svg">
<path d="M16.8667 9.49598L12.3216 15.3289C12.2794 15.3832 12.2292 15.4262 12.1741 15.4555C12.1189 15.4849 12.0597 15.5 12 15.5C11.9403 15.5 11.8811 15.4849 11.8259 15.4555C11.7708 15.4262 11.7206 15.3832 11.6784 15.3289L7.1333 9.49598C7.06967 9.4144 7.02632 9.31043 7.00875 9.19722C6.99119 9.08401 7.00019 8.96666 7.03462 8.86002C7.06905 8.75338 7.12736 8.66224 7.20217 8.59816C7.27698 8.53407 7.36492 8.49991 7.45487 8.5L16.5451 8.5C16.6351 8.49991 16.723 8.53407 16.7978 8.59816C16.8726 8.66224 16.931 8.75338 16.9654 8.86002C16.9998 8.96666 17.0088 9.08401 16.9912 9.19722C16.9737 9.31043 16.9303 9.4144 16.8667 9.49598Z" fill="#BA2130"/>
</svg>
