<svg width="25" height="24" viewBox="0 0 25 24" fill="none" xmlns="http://www.w3.org/2000/svg">
<path d="M21.4679 20.4794L16.7738 15.7862C18.1343 14.1528 18.8127 12.0578 18.6679 9.93692C18.5231 7.81605 17.5663 5.83266 15.9964 4.39933C14.4265 2.966 12.3644 2.19309 10.2391 2.24139C8.11388 2.28969 6.08907 3.15548 4.5859 4.65865C3.08273 6.16182 2.21694 8.18664 2.16864 10.3119C2.12034 12.4371 2.89325 14.4992 4.32657 16.0691C5.7599 17.639 7.7433 18.5959 9.86416 18.7407C11.985 18.8855 14.0801 18.2071 15.7135 16.8465L20.4066 21.5406C20.4763 21.6103 20.559 21.6656 20.6501 21.7033C20.7411 21.741 20.8387 21.7604 20.9372 21.7604C21.0358 21.7604 21.1334 21.741 21.2244 21.7033C21.3154 21.6656 21.3982 21.6103 21.4679 21.5406C21.5375 21.4709 21.5928 21.3882 21.6305 21.2972C21.6682 21.2061 21.6876 21.1085 21.6876 21.01C21.6876 20.9114 21.6682 20.8139 21.6305 20.7228C21.5928 20.6318 21.5375 20.549 21.4679 20.4794ZM3.68723 10.51C3.68723 9.17496 4.08311 7.86991 4.82481 6.75988C5.56651 5.64985 6.62071 4.78468 7.85411 4.27379C9.08751 3.7629 10.4447 3.62923 11.7541 3.88968C13.0635 4.15013 14.2662 4.793 15.2102 5.73701C16.1542 6.68101 16.7971 7.88375 17.0575 9.19312C17.318 10.5025 17.1843 11.8597 16.6734 13.0931C16.1625 14.3265 15.2974 15.3807 14.1873 16.1224C13.0773 16.8641 11.7723 17.26 10.4372 17.26C8.64762 17.258 6.93189 16.5462 5.66645 15.2808C4.40101 14.0153 3.68921 12.2996 3.68723 10.51Z" fill="white"/>
</svg>
