<svg width="16" height="17" viewBox="0 0 16 17" fill="none" xmlns="http://www.w3.org/2000/svg">
<g clip-path="url(#clip0_70_2205)">
<g clip-path="url(#clip1_70_2205)">
<path d="M2.59983 12.7115C2.69788 12.586 2.83098 12.5153 2.96986 12.515H15.7382C15.79 12.5149 15.8406 12.5344 15.8836 12.5711C15.9267 12.6078 15.9603 12.6599 15.9801 12.721C15.9999 12.782 16.005 12.8492 15.9949 12.914C15.9847 12.9787 15.9597 13.0382 15.923 13.0848L13.4009 16.3031C13.3523 16.3651 13.2946 16.4143 13.2311 16.4478C13.1676 16.4813 13.0995 16.4985 13.0308 16.4984H0.262518C0.211109 16.498 0.160933 16.4783 0.118253 16.4417C0.075572 16.4052 0.042278 16.3534 0.0225265 16.2928C0.002775 16.2322 -0.00255899 16.1656 0.00719035 16.1012C0.0169397 16.0368 0.0413405 15.9775 0.0773468 15.9306L2.59983 12.7115Z" fill="url(#paint0_linear_70_2205)"/>
<path d="M2.59983 0.694892C2.69893 0.5716 2.83146 0.501797 2.96986 0.5H15.7382C15.79 0.499904 15.8406 0.519428 15.8836 0.556095C15.9267 0.592761 15.9603 0.64492 15.9801 0.705957C15.9999 0.766994 16.005 0.834159 15.9949 0.898936C15.9847 0.963713 15.9597 1.02318 15.923 1.06981L13.4009 4.28813C13.3523 4.3501 13.2946 4.39924 13.2311 4.43275C13.1676 4.46626 13.0995 4.48348 13.0308 4.48342H0.262518C0.211109 4.48302 0.160933 4.4633 0.118253 4.42673C0.075572 4.39016 0.042278 4.33836 0.0225265 4.2778C0.002775 4.21723 -0.00255899 4.15059 0.00719035 4.08618C0.0169397 4.02177 0.0413405 3.96245 0.0773468 3.91563L2.59983 0.694892Z" fill="url(#paint1_linear_70_2205)"/>
<path d="M13.4005 6.66502C13.3519 6.60305 13.2942 6.55391 13.2307 6.5204C13.1672 6.48689 13.0991 6.46967 13.0304 6.46973H0.262118C0.210388 6.46974 0.159822 6.48932 0.116809 6.52599C0.0737948 6.56266 0.0402625 6.61477 0.0204477 6.67575C0.000632966 6.73672 -0.00457536 6.80382 0.00548067 6.86857C0.0155367 6.93332 0.040406 6.99281 0.0769469 7.03953L2.59943 10.2579C2.64803 10.3198 2.70572 10.369 2.76921 10.4025C2.83271 10.436 2.90075 10.4532 2.96946 10.4532H15.7378C15.7896 10.4532 15.8402 10.4337 15.8832 10.3971C15.9263 10.3604 15.9599 10.3082 15.9797 10.2472C15.9995 10.1862 16.0046 10.119 15.9945 10.0542C15.9843 9.98944 15.9593 9.92997 15.9226 9.88334L13.4005 6.66502Z" fill="url(#paint2_linear_70_2205)"/>
</g>
</g>
<defs>
<linearGradient id="paint0_linear_70_2205" x1="14.5185" y1="-1.42235" x2="1.83671" y2="17.6133" gradientUnits="userSpaceOnUse">
<stop stop-color="#00FFA3"/>
<stop offset="1" stop-color="#DC1FFF"/>
</linearGradient>
<linearGradient id="paint1_linear_70_2205" x1="10.6548" y1="-3.99657" x2="-2.02668" y2="15.0397" gradientUnits="userSpaceOnUse">
<stop stop-color="#00FFA3"/>
<stop offset="1" stop-color="#DC1FFF"/>
</linearGradient>
<linearGradient id="paint2_linear_70_2205" x1="12.5738" y1="-2.71791" x2="-0.107662" y2="16.3183" gradientUnits="userSpaceOnUse">
<stop stop-color="#00FFA3"/>
<stop offset="1" stop-color="#DC1FFF"/>
</linearGradient>
<clipPath id="clip0_70_2205">
<rect width="16" height="16" fill="white" transform="translate(0 0.5)"/>
</clipPath>
<clipPath id="clip1_70_2205">
<rect width="16" height="16" fill="white" transform="translate(0 0.5)"/>
</clipPath>
</defs>
</svg>
