<svg width="16" height="17" viewBox="0 0 16 17" fill="none" xmlns="http://www.w3.org/2000/svg">
<g clip-path="url(#clip0_70_2229)">
<g clip-path="url(#clip1_70_2229)">
<path fill-rule="evenodd" clip-rule="evenodd" d="M12.8053 7.17118C13.6373 7.98891 14.1387 9.02776 14.1387 10.1542C14.1387 11.2807 13.6267 12.3488 12.768 13.1748L12.6933 13.2458L12.672 13.154C12.656 13.0789 12.6347 12.9996 12.6133 12.9203C12.1867 11.4476 10.7893 10.1834 8.48533 9.15709C6.93333 8.4687 6.04267 7.63845 5.808 6.69556C5.65867 6.08643 5.77067 5.47313 5.984 4.94745C6.20267 4.42176 6.52267 3.98369 6.79467 3.72085L7.69067 2.86557C7.84533 2.71537 8.144 2.71537 8.29867 2.86557L12.8053 7.17118ZM14.2187 6.31589L8.224 0.583431C8.112 0.474957 7.89333 0.474957 7.78133 0.583431L1.78133 6.31589L1.76 6.33676C0.661333 7.40898 0 8.76909 0 10.2502C0 13.7005 3.584 16.5 8 16.5C12.416 16.5 16 13.7005 16 10.2502C16 8.76909 15.3387 7.40898 14.2347 6.33676L14.2187 6.31589ZM3.216 7.15449L3.74933 6.64132L3.76533 6.73728C3.776 6.81237 3.792 6.88747 3.81333 6.96257C4.16 8.38526 5.40267 9.5743 7.472 10.4922C9.27467 11.2932 10.32 12.2152 10.624 13.2291C10.752 13.6504 10.7733 14.0677 10.72 14.4306L10.7147 14.4515L10.688 14.4598C9.87733 14.7686 8.96 14.9438 7.99467 14.9438C4.608 14.9438 1.86133 12.7993 1.86133 10.1542C1.86133 9.01941 2.368 7.97222 3.216 7.15449Z" fill="#4DA2FF"/>
</g>
</g>
<defs>
<clipPath id="clip0_70_2229">
<rect width="16" height="16" fill="white" transform="translate(0 0.5)"/>
</clipPath>
<clipPath id="clip1_70_2229">
<rect width="16" height="16" fill="white" transform="translate(0 0.5)"/>
</clipPath>
</defs>
</svg>
