<svg width="8" height="14" viewBox="0 0 8 14" fill="none" xmlns="http://www.w3.org/2000/svg">
<path d="M7.50244 7.4342L1.36601 13.5706C1.30899 13.6277 1.24131 13.6729 1.16682 13.7037C1.09233 13.7346 1.01249 13.7505 0.931856 13.7505C0.851226 13.7505 0.771386 13.7346 0.696894 13.7037C0.622402 13.6729 0.554716 13.6277 0.497703 13.5706C0.440689 13.5136 0.395463 13.4459 0.364608 13.3714C0.333752 13.297 0.317871 13.2171 0.317871 13.1365C0.317871 13.0559 0.333752 12.976 0.364608 12.9015C0.395463 12.827 0.440689 12.7593 0.497703 12.7023L6.20075 7.00005L0.497703 1.29777C0.382558 1.18263 0.317871 1.02646 0.317871 0.863618C0.317871 0.700779 0.382558 0.54461 0.497703 0.429466C0.612847 0.314321 0.769017 0.249634 0.931856 0.249634C1.09469 0.249634 1.25086 0.314321 1.36601 0.429466L7.50244 6.5659C7.5595 6.62289 7.60476 6.69057 7.63564 6.76506C7.66652 6.83956 7.68241 6.91941 7.68241 7.00005C7.68241 7.08069 7.66652 7.16054 7.63564 7.23504C7.60476 7.30954 7.5595 7.37721 7.50244 7.4342Z" fill="#48484A"/>
</svg>
