<svg width="18" height="16" viewBox="0 0 18 16" fill="none" xmlns="http://www.w3.org/2000/svg">
<path d="M9.625 7.375V14.875C9.625 15.0408 9.55915 15.1997 9.44194 15.3169C9.32473 15.4342 9.16576 15.5 9 15.5C8.83424 15.5 8.67527 15.4342 8.55806 15.3169C8.44085 15.1997 8.375 15.0408 8.375 14.875V7.375C8.375 7.20924 8.44085 7.05027 8.55806 6.93306C8.67527 6.81585 8.83424 6.75 9 6.75C9.16576 6.75 9.32473 6.81585 9.44194 6.93306C9.55915 7.05027 9.625 7.20924 9.625 7.375ZM14.625 13C14.4592 13 14.3003 13.0658 14.1831 13.1831C14.0658 13.3003 14 13.4592 14 13.625V14.875C14 15.0408 14.0658 15.1997 14.1831 15.3169C14.3003 15.4342 14.4592 15.5 14.625 15.5C14.7908 15.5 14.9497 15.4342 15.0669 15.3169C15.1842 15.1997 15.25 15.0408 15.25 14.875V13.625C15.25 13.4592 15.1842 13.3003 15.0669 13.1831C14.9497 13.0658 14.7908 13 14.625 13ZM16.5 10.5H15.25V1.125C15.25 0.95924 15.1842 0.800269 15.0669 0.683058C14.9497 0.565848 14.7908 0.5 14.625 0.5C14.4592 0.5 14.3003 0.565848 14.1831 0.683058C14.0658 0.800269 14 0.95924 14 1.125V10.5H12.75C12.5842 10.5 12.4253 10.5658 12.3081 10.6831C12.1908 10.8003 12.125 10.9592 12.125 11.125C12.125 11.2908 12.1908 11.4497 12.3081 11.5669C12.4253 11.6842 12.5842 11.75 12.75 11.75H16.5C16.6658 11.75 16.8247 11.6842 16.9419 11.5669C17.0592 11.4497 17.125 11.2908 17.125 11.125C17.125 10.9592 17.0592 10.8003 16.9419 10.6831C16.8247 10.5658 16.6658 10.5 16.5 10.5ZM3.375 10.5C3.20924 10.5 3.05027 10.5658 2.93306 10.6831C2.81585 10.8003 2.75 10.9592 2.75 11.125V14.875C2.75 15.0408 2.81585 15.1997 2.93306 15.3169C3.05027 15.4342 3.20924 15.5 3.375 15.5C3.54076 15.5 3.69973 15.4342 3.81694 15.3169C3.93415 15.1997 4 15.0408 4 14.875V11.125C4 10.9592 3.93415 10.8003 3.81694 10.6831C3.69973 10.5658 3.54076 10.5 3.375 10.5ZM5.25 8H4V1.125C4 0.95924 3.93415 0.800269 3.81694 0.683058C3.69973 0.565848 3.54076 0.5 3.375 0.5C3.20924 0.5 3.05027 0.565848 2.93306 0.683058C2.81585 0.800269 2.75 0.95924 2.75 1.125V8H1.5C1.33424 8 1.17527 8.06585 1.05806 8.18306C0.940848 8.30027 0.875 8.45924 0.875 8.625C0.875 8.79076 0.940848 8.94973 1.05806 9.06694C1.17527 9.18415 1.33424 9.25 1.5 9.25H5.25C5.41576 9.25 5.57473 9.18415 5.69194 9.06694C5.80915 8.94973 5.875 8.79076 5.875 8.625C5.875 8.45924 5.80915 8.30027 5.69194 8.18306C5.57473 8.06585 5.41576 8 5.25 8ZM10.875 4.25H9.625V1.125C9.625 0.95924 9.55915 0.800269 9.44194 0.683058C9.32473 0.565848 9.16576 0.5 9 0.5C8.83424 0.5 8.67527 0.565848 8.55806 0.683058C8.44085 0.800269 8.375 0.95924 8.375 1.125V4.25H7.125C6.95924 4.25 6.80027 4.31585 6.68306 4.43306C6.56585 4.55027 6.5 4.70924 6.5 4.875C6.5 5.04076 6.56585 5.19973 6.68306 5.31694C6.80027 5.43415 6.95924 5.5 7.125 5.5H10.875C11.0408 5.5 11.1997 5.43415 11.3169 5.31694C11.4342 5.19973 11.5 5.04076 11.5 4.875C11.5 4.70924 11.4342 4.55027 11.3169 4.43306C11.1997 4.31585 11.0408 4.25 10.875 4.25Z" fill="#AEAEB2"/>
</svg>
