<svg width="16" height="17" viewBox="0 0 16 17" fill="none" xmlns="http://www.w3.org/2000/svg">
<g clip-path="url(#clip0_70_2282)">
<g clip-path="url(#clip1_70_2282)">
<path d="M14.3228 11.791C15.2293 10.6091 15.7217 9.16186 15.7242 7.67236V9.32754C15.7215 10.8041 15.2372 12.2394 14.3448 13.4158V11.8103L14.3228 11.791Z" fill="#CE893D"/>
<path d="M14.3447 11.8104V13.4159C13.9504 13.944 13.4864 14.4164 12.9654 14.8201V13.1897L12.9517 13.1731C13.4682 12.7756 13.9293 12.3108 14.3226 11.7911L14.3447 11.8104Z" fill="#E6A71E"/>
<path d="M8.00002 0.5C12.2648 0.5 15.7242 3.71107 15.7242 7.67241C15.7217 9.16191 15.2293 10.6091 14.3228 11.7911C13.9294 12.3107 13.4684 12.7756 12.9518 13.1731C12.5286 13.5057 12.0709 13.7915 11.5862 14.0255C11.0578 14.2831 10.5028 14.4821 9.93105 14.6187C8.66138 14.9203 7.33865 14.9203 6.06898 14.6187C5.49719 14.4821 4.94223 14.2831 4.41381 14.0255C3.9293 13.7915 3.47146 13.5057 3.04824 13.1731C2.53167 12.7756 2.0706 12.3107 1.67728 11.7911C0.77076 10.6091 0.278303 9.16191 0.275879 7.67241C0.275879 3.71107 3.7352 0.5 8.00002 0.5Z" fill="#FFCB5A"/>
<path d="M12.9657 13.1897V14.8201C12.5393 15.155 12.0778 15.4426 11.5891 15.6779L11.5864 15.6724V14.0255C12.0711 13.7915 12.5288 13.5057 12.952 13.1731L12.9657 13.1897Z" fill="#CE893D"/>
<path d="M11.5863 15.6725L11.589 15.678C11.0636 15.9357 10.5113 16.1345 9.9422 16.2711L9.93115 16.2242V14.6187C10.5029 14.4821 11.0579 14.2832 11.5863 14.0255V15.6725Z" fill="#E6A71E"/>
<path d="M9.94208 16.271C9.30603 16.4235 8.65409 16.5003 8 16.5V14.8448C8.65032 14.846 9.29863 14.7701 9.93103 14.6187V16.2241L9.94208 16.271Z" fill="#CE893D"/>
<path d="M8.00019 14.8448V16.5C7.34609 16.5003 6.69429 16.4235 6.05811 16.271L6.06915 16.2241V14.6187C6.70156 14.7701 7.34986 14.846 8.00019 14.8448Z" fill="#E6A71E"/>
<path d="M6.069 14.6187V16.2242L6.05795 16.2711C5.48885 16.1345 4.93659 15.9357 4.41113 15.678L4.41383 15.6725V14.0255C4.94225 14.2832 5.4972 14.4821 6.069 14.6187Z" fill="#CE893D"/>
<path d="M3.04841 13.1731C3.47163 13.5057 3.92947 13.7915 4.41398 14.0255V15.6724L4.41128 15.6779C3.92327 15.4417 3.4618 15.1541 3.03467 14.8201V13.1897L3.04841 13.1731Z" fill="#E6A71E"/>
<path d="M1.67736 11.7911C2.07068 12.3108 2.53176 12.7756 3.04832 13.1731L3.03458 13.1897V14.8201C2.51357 14.4164 2.04954 13.944 1.65527 13.4159V11.8104L1.67736 11.7911Z" fill="#CE893D"/>
<path d="M0.275879 7.67236C0.278303 9.16186 0.77076 10.6091 1.67728 11.791L1.65519 11.8103V13.4158C0.762813 12.2394 0.278573 10.8041 0.275879 9.32754V7.67236Z" fill="#E6A71E"/>
<path d="M14.0691 7.67239C14.0691 4.62525 11.3519 2.15515 8.00012 2.15515C4.64829 2.15515 1.93115 4.62525 1.93115 7.67239C1.93115 10.7195 4.64829 13.1896 8.00012 13.1896C11.3519 13.1896 14.0691 10.7195 14.0691 7.67239Z" fill="#E6A71E"/>
<path d="M11.7912 10.9081L11.4141 10.5058C11.7364 10.2055 12.0096 9.8562 12.2232 9.47083L12.7065 9.73618C12.4652 10.1727 12.1563 10.5683 11.7912 10.9081Z" fill="#FFCB5A"/>
<path d="M8.00017 12.3621C5.10995 12.3621 2.75879 10.2584 2.75879 7.67244C2.75879 5.08651 5.10995 2.98279 8.00017 2.98279C10.8904 2.98279 13.2415 5.08651 13.2415 7.67244H12.6898C12.6898 5.39079 10.5861 3.53451 8.00017 3.53451C5.41423 3.53451 3.31051 5.39079 3.31051 7.67244C3.31051 9.9541 5.41423 11.8104 8.00017 11.8104C8.92043 11.8148 9.82466 11.5707 10.6175 11.1036L10.9001 11.5779C10.0217 12.0957 9.01983 12.3667 8.00017 12.3621Z" fill="#FFCB5A"/>
</g>
</g>
<defs>
<clipPath id="clip0_70_2282">
<rect width="16" height="16" fill="white" transform="translate(0 0.5)"/>
</clipPath>
<clipPath id="clip1_70_2282">
<rect width="16" height="16" fill="white" transform="translate(0 0.5)"/>
</clipPath>
</defs>
</svg>
