<svg width="32" height="32" viewBox="0 0 32 32" fill="none" xmlns="http://www.w3.org/2000/svg">
<g clip-path="url(#clip0_54_6414)">
<path d="M0 2.61812V8.94318L12.8461 9.56818L13.4711 7.09374L12.8461 2.61812H0Z" fill="#FF8848"/>
<path d="M12.8462 2.61806V9.56818L25.6923 8.94318V2.61806H12.8462Z" fill="#FF4C4C"/>
<mask id="mask0_54_6414" style="mask-type:luminance" maskUnits="userSpaceOnUse" x="0" y="0" width="32" height="32">
<path d="M0 7.62939e-06H32V32H0V7.62939e-06Z" fill="white"/>
</mask>
<g mask="url(#mask0_54_6414)">
<path d="M0 8.94314V24.9022C0 25.7857 0.716187 26.5019 1.59975 26.5019H12.8461L14.0961 16.6041L12.8461 8.94314H0Z" fill="#FFF5F5"/>
<path d="M12.8462 26.5019H24.0926C24.9761 26.5019 25.6923 25.7857 25.6923 24.9022V8.94314H12.8462V26.5019Z" fill="#DCE6EB"/>
<path d="M5.25879 5.23615H3.38379V-4.57764e-05H5.25879V5.23615Z" fill="#004967"/>
<path d="M9.521 5.23615H7.646V-4.57764e-05H9.521V5.23615Z" fill="#004967"/>
<path d="M18.0459 5.23615H16.1709V-4.57764e-05H18.0459V5.23615Z" fill="#001130"/>
<path d="M22.3086 5.23615H20.4336V-4.57764e-05H22.3086V5.23615Z" fill="#001130"/>
<path d="M9.15569 22.0822L8.01938 21.5612L11.1115 14.8165H7.44238V13.5665H12.5774V14.6186L9.15569 22.0822Z" fill="#004967"/>
<path d="M11.9087 -4.57764e-05V5.23615H12.8462L13.4712 2.61802L12.8462 -4.57764e-05H11.9087Z" fill="#004967"/>
<path d="M13.7837 -4.57764e-05H12.8462V5.23615H13.7837V-4.57764e-05Z" fill="#001130"/>
<path d="M12.415 18.9612C12.415 19.5194 12.5729 20.0414 12.846 20.4852L13.471 18.8021L12.846 17.4372C12.5729 17.881 12.415 18.4029 12.415 18.9612Z" fill="#004967"/>
<path d="M15.3326 20.6285C14.4133 20.6285 13.6653 19.8805 13.6653 18.9612C13.6653 18.0417 14.4133 17.2938 15.3326 17.2938C16.2521 17.2938 17.0001 18.0417 17.0001 18.9612C17.0001 19.8805 16.2521 20.6285 15.3326 20.6285ZM17.0001 13.792V16.5693C16.527 16.2385 15.9523 16.0438 15.3326 16.0438C14.2822 16.0438 13.36 16.602 12.8462 17.4371V20.4852C13.36 21.3204 14.2822 21.8785 15.3326 21.8785C15.9523 21.8785 16.527 21.6837 17.0001 21.353V21.8785H18.2501V13.792H17.0001Z" fill="#001130"/>
<path d="M18.9585 25.0104C18.9585 28.3528 21.6681 31.0624 25.0106 31.0624L26.2606 24.5166L25.0106 18.9583C21.6681 18.9583 18.9585 21.6679 18.9585 25.0104Z" fill="#FFF5F5"/>
<path d="M25.0103 18.9583H25.0103V31.0625H25.0103C28.3528 31.0625 31.0624 28.3529 31.0624 25.0104C31.0624 21.6679 28.3528 18.9583 25.0103 18.9583Z" fill="#DCE6EB"/>
<path d="M19.896 25.0104C19.896 22.1902 22.1904 19.8958 25.0106 19.8958L25.6356 18.9583L25.0106 18.0208C21.1566 18.0208 18.021 21.1563 18.021 25.0104C18.021 28.8644 21.1566 31.9999 25.0106 31.9999L25.6356 31.0624L25.0106 30.1249C22.1904 30.1249 19.896 27.8306 19.896 25.0104Z" fill="#218ADC"/>
<path d="M25.0103 18.0208H25.0103V19.8958H25.0103C27.8305 19.8958 30.1249 22.1902 30.1249 25.0104C30.1249 27.8306 27.8305 30.125 25.0103 30.125H25.0103V32H25.0103C28.8644 32 31.9999 28.8644 31.9999 25.0104C31.9999 21.1563 28.8644 18.0208 25.0103 18.0208Z" fill="#1865A1"/>
<path d="M24.073 21.7708V24.6221L22.9102 25.785L24.2359 27.1108L25.0105 26.3362L25.6355 23.8125L25.0105 21.7708H24.073Z" fill="#218ADC"/>
<path d="M25.9478 21.7708H25.0103V26.3362L25.9478 25.3987V21.7708Z" fill="#1865A1"/>
</g>
</g>
<defs>
<clipPath id="clip0_54_6414">
<rect width="32" height="32" fill="white"/>
</clipPath>
</defs>
</svg>
