<svg width="21" height="11" viewBox="0 0 21 11" fill="none" xmlns="http://www.w3.org/2000/svg">
<path d="M17.25 5.25C17.25 5.44891 17.171 5.63968 17.0303 5.78033C16.8897 5.92098 16.6989 6 16.5 6H4.5C4.30109 6 4.11032 5.92098 3.96967 5.78033C3.82902 5.63968 3.75 5.44891 3.75 5.25C3.75 5.05109 3.82902 4.86032 3.96967 4.71967C4.11032 4.57902 4.30109 4.5 4.5 4.5H16.5C16.6989 4.5 16.8897 4.57902 17.0303 4.71967C17.171 4.86032 17.25 5.05109 17.25 5.25ZM20.25 0H0.75C0.551088 0 0.360322 0.0790178 0.21967 0.21967C0.0790176 0.360322 0 0.551088 0 0.75C0 0.948912 0.0790176 1.13968 0.21967 1.28033C0.360322 1.42098 0.551088 1.5 0.75 1.5H20.25C20.4489 1.5 20.6397 1.42098 20.7803 1.28033C20.921 1.13968 21 0.948912 21 0.75C21 0.551088 20.921 0.360322 20.7803 0.21967C20.6397 0.0790178 20.4489 0 20.25 0ZM12.75 9H8.25C8.05109 9 7.86032 9.07902 7.71967 9.21967C7.57902 9.36032 7.5 9.55109 7.5 9.75C7.5 9.94891 7.57902 10.1397 7.71967 10.2803C7.86032 10.421 8.05109 10.5 8.25 10.5H12.75C12.9489 10.5 13.1397 10.421 13.2803 10.2803C13.421 10.1397 13.5 9.94891 13.5 9.75C13.5 9.55109 13.421 9.36032 13.2803 9.21967C13.1397 9.07902 12.9489 9 12.75 9Z" fill="white"/>
</svg>
