<svg width="16" height="17" viewBox="0 0 16 17" fill="none" xmlns="http://www.w3.org/2000/svg">
<g clip-path="url(#clip0_70_2241)">
<path d="M15.3579 5.39105C14.9528 4.44118 14.3806 3.58873 13.6402 2.84771C12.8998 2.10669 12.0622 1.53394 11.1133 1.12841C10.1218 0.708732 9.07456 0.5 7.99994 0.5C6.92544 0.5 5.86401 0.709784 4.88668 1.12841C3.9378 1.53394 3.08597 2.10669 2.34565 2.84771C1.60521 3.58873 1.03297 4.44013 0.627878 5.39105C0.208554 6.36921 0 7.41742 0 8.50713C0 9.59674 0.209603 10.6308 0.627878 11.6231C1.03297 12.573 1.60521 13.4254 2.34565 14.1664C3.08597 14.9076 3.9378 15.4802 4.88668 15.8716C5.87824 16.2913 6.92544 16.5 7.99994 16.5C9.07456 16.5 10.1228 16.2901 11.1133 15.8716C12.0622 15.4661 12.914 14.8933 13.6544 14.1523C14.3948 13.4113 14.9669 12.5599 15.3721 11.609C15.7914 10.6165 16 9.56832 16 8.49287C16 7.41742 15.7762 6.36921 15.3579 5.39105ZM5.34648 7.7529C5.66747 6.46755 6.8403 5.5309 8.22273 5.5309H13.78C14.1425 6.21509 14.3663 6.97037 14.4504 7.7529H5.34648ZM14.4504 9.2623C14.3663 10.0449 14.1294 10.7991 13.78 11.4843H8.22273C6.8403 11.4843 5.6817 10.5346 5.34648 9.2623H14.4504ZM3.40592 3.91006C4.6345 2.68049 6.26806 2.0094 7.99994 2.0094C9.73195 2.0094 11.3655 2.68049 12.5941 3.91006C12.6355 3.95158 12.6639 3.97999 12.7055 4.0215H8.22273C7.02156 4.0215 5.90449 4.48281 5.05266 5.33527C4.3822 6.00636 3.94982 6.84467 3.80996 7.7529H1.54841C1.71556 6.29928 2.35871 4.95815 3.40592 3.91006ZM7.99994 15.0049C6.26806 15.0049 4.6345 14.3338 3.40592 13.1041C2.35871 12.056 1.71661 10.7007 1.54841 9.26125H3.80996C3.96393 10.1695 4.39643 11.0078 5.05266 11.6789C5.90449 12.5315 7.02156 12.9926 8.22273 12.9926H12.7055C12.6639 13.0342 12.6355 13.0626 12.5941 13.1041C11.3655 14.3338 9.73195 15.0049 7.99994 15.0049Z" fill="white"/>
</g>
<defs>
<clipPath id="clip0_70_2241">
<rect width="16" height="16" fill="white" transform="translate(0 0.5)"/>
</clipPath>
</defs>
</svg>
